# xmcd
#
# Track frame offsets: 
#        150
#        14247
#        35034
#        52452
#        72512
#        91670
#        109857
#        130614
#        145679
#        157234
#        173049
#        190382
#        214167
#        227999
#        247292
#
# Disc length: 3895 seconds
#
# Revision: 0
# Processed by: cddbd v1.5.2PL0 Copyright (c) Steve Scherf et al.
# Submitted via: ExactAudioCopy v0.99pb4
#
DISCID=ec0f350f
DTITLE=Silver Mountain - Breakin Chains
DYEAR=2001
DGENRE=Heavy Metal
TTITLE0=Prophet of Doom
TTITLE1=Before the Storm
TTITLE2=Felo de Se
TTITLE3=Man of No Present Existence
TTITLE4=Scarlet Pimpernel
TTITLE5=Maniac
TTITLE6=Axeman and the Virgin
TTITLE7=Breakin' Chains
TTITLE8=Rider of the Night
TTITLE9=A.S.W.A.S.T.
TTITLE10=Butterfly
TTITLE11=Dance Around the Fire
TTITLE12=Millattack
TTITLE13=Ressurection
TTITLE14=Video Clip
EXTD=
EXTT0=
EXTT1=
EXTT2=
EXTT3=
EXTT4=
EXTT5=
EXTT6=
EXTT7=
EXTT8=
EXTT9=
EXTT10=
EXTT11=
EXTT12=
EXTT13=
EXTT14=
PLAYORDER=
